<svg id="图层_1" data-name="图层 1" xmlns="http://www.w3.org/2000/svg" viewBox="0 0 300 300"><defs><style>.cls-1{fill:#1a9dd2;}</style></defs><title>画板 1</title><polygon class="cls-1" points="62.68 147.63 64.94 145.71 74.54 145.71 73.86 149.55 81.54 149.55 82.9 141.87 61.78 141.87 55 147.63 51.96 164.91 78.84 164.91 79.52 161.07 60.32 161.07 61 157.23 80.2 157.23 80.88 153.39 61.68 153.39 62.68 147.63"/><polygon class="cls-1" points="101.28 161.07 89.76 161.07 94.5 134.19 86.82 134.19 81.4 164.91 108.28 164.91 109.64 157.23 101.96 157.23 101.28 161.07"/><polygon class="cls-1" points="130.16 153.39 124.4 153.39 123.72 157.23 133.32 157.23 140.08 151.47 141.78 141.87 120.66 141.87 113.88 147.63 110.84 164.91 137.72 164.91 138.4 161.07 119.2 161.07 121.56 147.63 123.82 145.71 133.42 145.71 132.4 151.47 130.16 153.39"/><polygon class="cls-1" points="163.54 141.87 161.18 155.31 154.4 161.07 148.64 161.07 152.02 141.87 144.34 141.87 140.28 164.91 157.56 164.91 168.86 155.31 171.22 141.87 163.54 141.87"/><polygon class="cls-1" points="179.54 141.87 172.76 147.63 169.72 164.91 185.08 164.91 185.76 161.07 178.08 161.07 180.44 147.63 182.7 145.71 192.3 145.71 188.92 164.91 196.6 164.91 200.66 141.87 179.54 141.87"/><polygon class="cls-1" points="207.85 159.15 210.22 145.71 217.9 145.71 218.57 141.87 210.9 141.87 212.25 134.19 204.57 134.19 200.18 159.15 204.91 164.91 214.52 164.91 215.19 161.07 209.44 161.07 207.85 159.15"/><polygon class="cls-1" points="236.4 153.39 230.63 153.39 229.96 157.23 239.56 157.23 246.31 151.47 248.02 141.87 226.9 141.87 220.12 147.63 217.07 164.91 243.96 164.91 244.63 161.07 225.44 161.07 227.79 147.63 230.06 145.71 239.66 145.71 238.63 151.47 236.4 153.39"/></svg>