<svg width="197" height="31" viewBox="0 0 197 31" fill="none" xmlns="http://www.w3.org/2000/svg">
<path d="M10.72 13.4397L12.98 11.5197H22.58L21.9 15.3597H29.58L30.94 7.67969H9.82L3.04 13.4397L0 30.7197H26.88L27.56 26.8797H8.36L9.04 23.0397H28.24L28.92 19.1997H9.72L10.72 13.4397Z" fill="#1A9DD2"/>
<path d="M49.3199 26.88H37.7999L42.5399 0H34.8599L29.4399 30.72H56.3199L57.6799 23.04H49.9999L49.3199 26.88Z" fill="#1A9DD2"/>
<path d="M78.1999 19.1997H72.4399L71.7599 23.0397H81.3599L88.1199 17.2797L89.8199 7.67969H68.6999L61.9199 13.4397L58.8799 30.7197H85.7599L86.4399 26.8797H67.2399L69.5999 13.4397L71.8599 11.5197H81.4599L80.4399 17.2797L78.1999 19.1997Z" fill="#1A9DD2"/>
<path d="M111.58 7.67969L109.22 21.1197L102.44 26.8797H96.6798L100.06 7.67969H92.3798L88.3198 30.7197H105.6L116.9 21.1197L119.26 7.67969H111.58Z" fill="#1A9DD2"/>
<path d="M127.58 7.67969L120.8 13.4397L117.76 30.7197H133.12L133.8 26.8797H126.12L128.48 13.4397L130.74 11.5197H140.34L136.96 30.7197H144.64L148.7 7.67969H127.58Z" fill="#1A9DD2"/>
<path d="M155.89 24.96L158.26 11.52H165.94L166.61 7.67999H158.94L160.29 0H152.61L148.22 24.96L152.95 30.72H162.56L163.23 26.88H157.48L155.89 24.96Z" fill="#1A9DD2"/>
<path d="M184.44 19.1997H178.67L178 23.0397H187.6L194.35 17.2797L196.06 7.67969H174.94L168.16 13.4397L165.11 30.7197H192L192.67 26.8797H173.48L175.83 13.4397L178.1 11.5197H187.7L186.67 17.2797L184.44 19.1997Z" fill="#1A9DD2"/>
</svg>
